<?xml version="1.0" standalone="no"?>
<!DOCTYPE svg PUBLIC "-//W3C//DTD SVG 20010904//EN"
 "http://www.w3.org/TR/2001/REC-SVG-20010904/DTD/svg10.dtd">
<svg version="1.0" xmlns="http://www.w3.org/2000/svg"
 width="1506.000000pt" height="468.000000pt" viewBox="0 0 1506.000000 468.000000"
 preserveAspectRatio="xMidYMid meet">
<metadata>
Created by potrace 1.10, written by Peter Selinger 2001-2011
</metadata>
<g transform="translate(0.000000,468.000000) scale(0.100000,-0.100000)"
fill="#000000" stroke="none">
<path d="M9304 4381 c-56 -25 -121 -85 -146 -135 -28 -54 -29 -175 -3 -226 33
-64 60 -92 123 -127 59 -33 68 -35 151 -35 105 0 148 18 222 92 57 57 73 106
67 202 -8 105 -65 183 -170 231 -52 24 -189 23 -244 -2z"/>
<path d="M1440 4265 c-224 -22 -423 -98 -590 -225 -73 -56 -194 -188 -237
-260 -129 -215 -173 -376 -173 -630 0 -142 5 -189 30 -300 28 -122 127 -306
227 -422 118 -138 325 -270 490 -314 32 -9 83 -23 113 -31 31 -8 126 -17 215
-20 213 -7 303 5 505 68 95 30 244 119 331 198 18 17 37 31 40 31 13 0 179
220 179 237 0 3 16 38 35 78 141 284 138 774 -6 1008 -16 26 -29 50 -29 53 0
3 -15 28 -33 57 -54 83 -154 187 -245 254 -91 68 -264 157 -328 169 -21 4 -57
13 -78 21 -35 12 -117 22 -281 37 -22 2 -96 -2 -165 -9z m319 -198 c79 -39
155 -112 201 -192 114 -198 166 -519 141 -867 -16 -224 -48 -358 -119 -506
-95 -199 -244 -293 -443 -279 -222 15 -383 197 -453 512 -43 195 -59 480 -36
635 6 36 15 97 20 135 21 158 86 330 160 427 103 135 209 182 385 171 63 -4
94 -11 144 -36z"/>
<path d="M3910 4268 c-165 -14 -298 -50 -432 -118 -206 -103 -365 -259 -465
-455 -76 -148 -108 -262 -122 -438 -32 -413 110 -748 414 -975 87 -65 240
-146 307 -162 18 -4 69 -18 113 -31 72 -21 100 -23 290 -24 219 0 236 2 405
52 265 78 501 280 619 528 42 87 51 114 92 275 29 111 29 412 0 525 -31 125
-49 174 -83 234 -17 31 -42 76 -56 101 -37 67 -156 195 -244 261 -165 126
-382 208 -593 224 -44 3 -93 7 -110 9 -16 2 -77 -1 -135 -6z m298 -201 c102
-50 210 -179 257 -307 98 -268 115 -741 39 -1060 -50 -209 -165 -375 -309
-445 -55 -27 -69 -30 -171 -30 -107 0 -112 1 -186 38 -112 55 -195 154 -259
312 -63 153 -95 404 -86 665 10 268 43 432 119 589 70 145 211 261 333 274 93
10 198 -4 263 -36z"/>
<path d="M5360 4195 c-12 -33 -13 -57 -1 -88 8 -19 20 -27 53 -32 69 -11 151
-36 185 -56 64 -39 63 -27 63 -875 0 -682 -2 -767 -16 -797 -26 -54 -68 -73
-214 -97 -35 -6 -68 -16 -72 -23 -10 -16 -10 -79 0 -95 6 -9 129 -12 563 -12
305 -1 560 -1 567 0 8 0 12 19 12 59 l0 59 -77 16 c-43 9 -87 19 -98 21 -43
10 -87 47 -106 90 -18 40 -19 65 -17 342 l3 298 180 7 c185 8 365 31 424 54
18 8 41 14 50 14 9 0 54 20 101 43 227 114 331 253 360 482 23 184 -26 335
-140 439 -48 43 -162 102 -240 122 -180 49 -168 48 -888 52 l-682 3 -10 -26z
m1111 -148 c145 -35 213 -114 251 -291 39 -181 0 -358 -101 -462 -72 -75 -221
-127 -347 -122 l-69 3 -3 435 c-1 239 0 441 3 449 5 11 25 13 108 7 56 -3 127
-12 158 -19z"/>
<path d="M8045 3619 c-253 -19 -442 -143 -508 -334 -11 -31 -17 -80 -17 -130
0 -137 47 -243 144 -333 86 -78 135 -102 336 -162 58 -17 139 -44 181 -61 41
-16 80 -29 87 -29 6 0 33 -21 60 -48 55 -54 67 -90 51 -160 -23 -105 -97 -152
-238 -152 -107 0 -160 17 -263 88 -90 61 -171 155 -238 276 -42 74 -48 81 -79
84 -19 2 -45 1 -58 -3 l-24 -6 7 -267 c4 -150 11 -272 17 -279 10 -14 95 -18
113 -5 6 4 19 22 29 40 23 38 37 39 102 11 163 -71 381 -103 533 -79 137 22
165 27 206 43 242 90 355 241 354 473 -1 119 -35 205 -113 286 -73 74 -200
139 -377 192 -268 79 -344 123 -369 211 -21 77 42 171 129 195 73 20 186 9
255 -25 82 -41 187 -150 240 -251 l42 -79 51 -3 c38 -2 54 1 58 11 3 8 2 122
-3 253 l-8 238 -32 9 c-53 15 -100 1 -112 -33 -12 -35 -37 -39 -98 -16 -110
41 -282 58 -458 45z"/>
<path d="M10750 3621 c-47 -4 -96 -12 -110 -18 -14 -6 -43 -16 -65 -23 -118
-36 -256 -131 -341 -234 -43 -52 -134 -221 -134 -249 0 -8 -7 -34 -15 -58 -22
-61 -22 -327 0 -388 8 -24 15 -52 15 -62 0 -29 68 -164 115 -228 137 -186 380
-289 690 -294 120 -1 212 15 320 56 90 34 132 59 231 136 75 59 174 178 174
209 0 19 -40 56 -87 80 -19 11 -30 3 -115 -81 -129 -130 -191 -160 -340 -165
-90 -3 -117 0 -169 18 -158 54 -247 170 -293 380 -14 63 -22 184 -13 192 1 2
223 5 492 8 l490 5 3 80 c2 49 -3 112 -14 165 -48 235 -181 375 -427 450 -72
22 -274 32 -407 21z m191 -154 c19 -12 46 -45 61 -73 30 -56 58 -193 58 -285
0 -53 -2 -59 -22 -63 -13 -3 -111 -8 -219 -11 -177 -6 -197 -5 -203 10 -24 64
21 263 83 358 53 83 169 113 242 64z"/>
<path d="M12350 3619 c-113 -8 -176 -25 -270 -73 -91 -46 -139 -85 -183 -149
-47 -67 -66 -124 -73 -212 -12 -140 41 -273 144 -365 74 -66 163 -108 343
-163 80 -24 167 -54 193 -66 27 -11 54 -21 61 -21 7 0 36 -22 64 -48 l51 -48
0 -71 c0 -62 -3 -75 -30 -111 -43 -60 -101 -82 -211 -82 -108 0 -158 18 -268
95 -86 60 -175 164 -227 264 -17 33 -36 67 -43 75 -18 21 -94 21 -111 1 -18
-22 2 -534 22 -546 7 -5 34 -9 60 -9 45 0 48 2 74 45 14 25 27 45 29 45 1 0
29 -12 61 -26 135 -60 265 -87 419 -88 243 -2 442 64 564 186 92 91 129 209
118 374 -13 214 -150 338 -487 438 -302 90 -365 132 -365 245 0 74 29 115 103
148 74 35 188 30 276 -10 84 -39 195 -155 245 -256 l37 -76 57 -3 c44 -2 59 1
63 12 3 9 1 120 -6 248 -13 259 -12 258 -82 258 -39 0 -88 -34 -88 -61 0 -14
-37 -9 -155 24 -101 28 -231 37 -385 26z"/>
<path d="M9505 3598 c-427 -25 -502 -30 -523 -35 -21 -5 -23 -10 -20 -56 3
-56 5 -58 93 -84 76 -22 138 -76 154 -136 9 -30 11 -168 9 -492 -3 -515 0
-496 -87 -534 -27 -11 -66 -21 -85 -21 -25 0 -38 -6 -46 -19 -13 -25 -13 -88
0 -96 8 -5 679 -9 923 -5 14 0 17 9 17 55 0 36 -4 57 -12 59 -114 30 -178 69
-199 123 -5 14 -9 277 -9 623 l0 599 -22 15 c-12 9 -29 15 -38 14 -8 -1 -78
-5 -155 -10z"/>
<path d="M1561 1767 c-56 -29 -39 -97 24 -97 56 0 76 64 30 94 -29 19 -24 19
-54 3z"/>
<path d="M2340 1769 c-75 -15 -77 -17 -39 -48 l34 -29 3 -298 c4 -362 3 -371
-43 -403 -19 -13 -32 -27 -29 -32 7 -12 241 -12 248 0 3 5 -9 20 -28 34 -30
23 -34 32 -39 88 -5 62 4 99 24 99 6 0 25 -15 43 -33 108 -112 123 -140 91
-167 -8 -7 -12 -16 -9 -21 7 -12 261 -11 269 1 3 5 -16 20 -42 34 -46 23 -109
83 -220 211 -29 33 -53 63 -53 67 0 18 125 139 156 150 19 6 34 18 34 25 0 10
-23 13 -93 13 -52 0 -97 -3 -100 -6 -3 -4 3 -18 14 -32 25 -32 18 -52 -39
-119 -48 -56 -66 -64 -76 -36 -4 9 -6 123 -6 254 1 132 -2 243 -5 249 -7 12
-32 11 -95 -1z"/>
<path d="M3812 1764 c-24 -17 -30 -62 -10 -82 7 -7 27 -12 45 -12 27 0 35 5
44 26 13 35 3 63 -28 75 -30 11 -24 12 -51 -7z"/>
<path d="M652 1748 c-12 -16 -21 -187 -10 -194 14 -9 35 14 41 45 10 47 71 98
131 110 115 22 123 22 141 5 15 -15 16 -49 13 -333 -3 -356 -3 -353 -78 -391
-23 -12 -38 -25 -35 -30 4 -6 82 -10 186 -10 195 0 216 7 137 45 -64 31 -66
44 -67 397 -1 349 -2 343 72 332 130 -19 176 -45 212 -120 37 -79 51 -67 46
42 -2 49 -8 95 -13 102 -8 9 -98 12 -388 12 -290 0 -380 -3 -388 -12z"/>
<path d="M3500 1568 c-7 -18 -33 -54 -58 -80 l-46 -47 27 -21 27 -21 0 -195 0
-196 30 -30 c30 -29 31 -29 112 -24 97 6 90 6 240 0 128 -6 175 4 125 27 -57
26 -62 45 -65 269 -2 113 -7 207 -12 210 -4 3 -36 3 -70 2 -73 -4 -83 -18 -47
-62 31 -37 42 -122 34 -260 -7 -114 -11 -126 -48 -145 -28 -15 -47 -6 -34 15
10 16 -11 12 -47 -10 -33 -19 -35 -19 -68 -1 -19 10 -38 29 -41 42 -10 36 -10
352 0 368 5 7 34 16 65 20 73 8 77 25 6 29 -30 2 -60 8 -67 13 -7 6 -13 36
-15 67 -4 69 -27 83 -48 30z"/>
<path d="M1490 1450 c-11 -7 -12 -13 -5 -23 51 -71 50 -68 54 -191 4 -154 -10
-222 -50 -245 -16 -9 -27 -20 -26 -26 5 -13 227 -19 240 -6 6 6 -4 21 -27 41
l-36 32 -2 211 -3 212 -65 3 c-36 1 -72 -2 -80 -8z"/>
<path d="M1909 1433 c-69 -36 -111 -91 -132 -175 -15 -58 -15 -71 -2 -121 34
-133 106 -187 246 -187 90 0 134 18 158 64 23 42 7 48 -32 12 -51 -46 -84 -52
-141 -26 -55 25 -91 75 -112 154 -13 49 -13 63 1 124 22 95 69 152 125 152 41
0 47 -4 83 -60 17 -27 30 -35 51 -35 59 0 60 68 2 104 -53 33 -175 30 -247 -6z"/>
<path d="M3008 1439 c-180 -94 -183 -379 -6 -470 49 -25 193 -27 241 -3 41 21
76 63 77 92 0 31 -8 28 -45 -15 -32 -37 -35 -38 -98 -37 -57 0 -69 4 -104 32
-52 41 -85 115 -81 180 l3 47 160 5 160 5 3 27 c5 43 -33 104 -81 133 -57 33
-171 35 -229 4z m169 -31 c29 -32 45 -67 39 -84 -4 -11 -28 -14 -106 -14 -109
0 -123 7 -99 52 27 50 52 68 100 68 35 0 50 -5 66 -22z"/>
<path d="M4043 1453 c-19 -7 -15 -31 7 -43 32 -17 42 -74 38 -234 l-3 -148
-37 -33 c-21 -17 -35 -35 -31 -38 9 -9 238 -9 247 0 4 4 -10 22 -31 39 l-38
32 -3 138 c-3 125 -2 142 18 185 26 55 74 84 124 73 77 -16 99 -76 94 -251 -4
-139 -13 -169 -64 -192 -14 -6 -22 -16 -19 -21 9 -14 242 -13 251 1 4 7 1 15
-7 20 -55 31 -54 26 -60 211 -7 190 -13 217 -64 248 -46 29 -160 28 -217 -1
l-42 -22 -14 22 c-12 18 -24 21 -76 20 -33 0 -67 -3 -73 -6z"/>
<path d="M4746 1440 c-58 -37 -75 -69 -76 -138 0 -52 4 -69 25 -96 32 -42 31
-50 -2 -74 -24 -17 -28 -28 -28 -68 0 -29 5 -49 13 -52 19 -6 14 -26 -9 -42
-36 -25 -52 -74 -38 -120 15 -51 41 -73 108 -95 99 -32 253 -4 308 56 64 71
39 196 -47 232 -14 5 -73 13 -132 16 -122 7 -148 20 -109 52 15 12 39 19 66
19 82 0 175 61 191 126 4 14 3 42 -1 62 -4 20 -9 49 -12 65 -6 32 10 36 55 10
16 -9 36 -14 45 -10 20 7 23 47 5 65 -16 16 -103 15 -128 0 -15 -10 -26 -10
-53 0 -51 18 -147 14 -181 -8z m150 -37 c15 -21 19 -46 19 -105 0 -74 -1 -79
-33 -110 -31 -32 -33 -32 -59 -16 -58 35 -79 121 -48 195 22 53 34 63 70 63
24 0 37 -7 51 -27z m49 -453 c13 -5 32 -21 41 -36 17 -25 17 -28 -2 -63 -22
-42 -90 -80 -146 -80 -71 -2 -158 53 -158 99 0 35 17 50 56 50 23 0 36 7 49
26 16 25 20 26 77 20 33 -4 70 -11 83 -16z"/>
</g>
</svg>
